/* XPM */
static char *down[]={
"20 20 5 1",
". c None",
"# c #000000",
"c c #a0a0a0",
"b c #c3c3c3",
"a c #ffffff",
"....................",
"....................",
"....................",
"....................",
"....................",
"....................",
"....................",
"....................",
"..###############...",
"...#aaaaaaaaa.b#cb..",
"....#........c#cb...",
".....#......c#cb....",
"......#....c#cb.....",
".......#..c#cb......",
"........#c#cb.......",
".........#cb........",
"..........b.........",
"....................",
"....................",
"...................."};
