/* XPM */
static char *right[]={
"20 20 6 1",
". c None",
"# c #303030",
"b c #808080",
"c c #a0a0a0",
"d c #c3c3c3",
"a c #ffffff",
"....................",
"....................",
"........#...........",
"........##..........",
"........#a#.........",
"........#a.#........",
"........#a..#.......",
"........#a...#......",
"........#a....#.....",
"........#a....b#....",
"........#a...b#cd...",
"........#a..b#cd....",
"........#a.b#cd.....",
"........#.b#cd......",
"........#d#cd.......",
"........##cd........",
"........#cd.........",
".........d..........",
"....................",
"...................."};
